<svg width="216" height="18" viewBox="0 0 216 18" fill="none" xmlns="http://www.w3.org/2000/svg">
<g clip-path="url(#clip0)">
<path d="M142.398 10.0073C144.405 9.3853 145.551 7.8403 145.551 5.7413C145.551 2.9123 143.54 1.1543 140.304 1.1543H135.445V1.4043L135.513 1.4403C135.926 1.6563 135.945 2.2753 135.945 3.3523V17.3133H137.315V10.3063H140.304C140.532 10.3063 140.766 10.2933 141.033 10.2693L145.802 17.3133H147.344L142.398 10.0073ZM144.092 5.7413C144.092 7.8843 142.737 9.1633 140.464 9.1633L137.316 9.1843V2.2963H140.465C142.736 2.2963 144.092 3.5843 144.092 5.7413Z" fill="#858C97"/>
<path d="M200.158 10.0073C202.163 9.3853 203.31 7.8403 203.31 5.7413C203.31 2.9123 201.3 1.1543 198.063 1.1543H193.204V1.4043L193.271 1.4403C193.684 1.6563 193.705 2.2753 193.705 3.3523V17.3133H195.074V10.3063H198.063C198.291 10.3063 198.524 10.2933 198.792 10.2693L203.56 17.3133H205.102L200.158 10.0073ZM201.851 5.7413C201.851 7.8843 200.496 9.1633 198.223 9.1633L195.075 9.1843V2.2963H198.224C200.495 2.2963 201.851 3.5843 201.851 5.7413Z" fill="#858C97"/>
<path d="M4.515 8.19668C2.847 7.22768 1.467 6.29168 1.467 4.64668V4.49268C1.552 2.88168 2.802 1.87668 4.726 1.86868H4.76C6.218 1.86868 7.199 2.30168 7.762 3.19368L7.799 3.25268L8.147 3.25068V1.55468L8.084 1.51868C7.199 0.98268 6.124 0.72168 4.793 0.72168C2.055 0.72168 0.067 2.40168 0.067 4.71568C0.067 6.93768 1.591 8.03568 3.584 9.23968L3.866 9.41168C6.042 10.7387 7.48 11.6177 7.48 13.4767V13.6587C7.458 15.3547 5.959 16.5737 3.951 16.5077C2.122 16.4487 1.297 16.0457 0.416 14.7787L0.381 14.7267L0 14.7047V16.5167L0.055 16.5547C1.113 17.2827 2.414 17.6527 3.924 17.6527C5.273 17.6527 6.512 17.2667 7.321 16.5947C8.324 15.7747 8.833 14.6937 8.833 13.3837C8.833 11.1667 7.378 9.89668 4.515 8.19668Z" fill="#858C97"/>
<path d="M211.677 8.1967C210.009 7.2277 208.63 6.2917 208.63 4.6467V4.4927C208.715 2.8817 209.964 1.8767 211.888 1.8687H211.923C213.381 1.8687 214.362 2.3017 214.924 3.1937L214.962 3.2527L215.309 3.2507V1.5547L215.247 1.5177C214.362 0.981703 213.286 0.720703 211.956 0.720703C209.218 0.720703 207.23 2.4007 207.23 4.7147C207.23 6.9367 208.754 8.0347 210.746 9.2387L211.028 9.4107C213.205 10.7377 214.643 11.6167 214.643 13.4757V13.6577C214.621 15.3537 213.129 16.5727 211.114 16.5067C209.285 16.4477 208.459 16.0447 207.578 14.7777L207.543 14.7257L207.162 14.7047V16.5167L207.218 16.5547C208.275 17.2827 209.576 17.6527 211.087 17.6527C212.436 17.6527 213.674 17.2667 214.484 16.5947C215.487 15.7747 215.995 14.6937 215.995 13.3837C215.995 11.1667 214.541 9.8967 211.677 8.1967Z" fill="#858C97"/>
<path d="M41.9175 1.1543V11.0193C41.9175 12.9353 41.4605 14.3113 40.5215 15.2283C39.6265 16.1013 38.3095 16.5803 36.8105 16.5803C35.2965 16.5803 33.9705 16.1013 33.0785 15.2303C32.1265 14.2773 31.6825 12.9323 31.6825 10.9973V1.1543H29.8115V1.4043L29.8805 1.4393C30.2925 1.6553 30.3125 2.2753 30.3125 3.3513V11.0873C30.3125 13.2573 30.8575 14.7793 32.0785 16.0233C33.1815 17.1493 34.8095 17.7453 36.7885 17.7453C38.7745 17.7453 40.3965 17.1493 41.4755 16.0233C42.7125 14.7633 43.2645 13.2413 43.2645 11.0873V1.1543H41.9175Z" fill="#858C97"/>
<path d="M47.209 1.1543V1.4043L47.276 1.4393C47.688 1.6553 47.708 2.2753 47.708 3.3513V17.3123H49.078V1.1543H47.209Z" fill="#858C97"/>
<path d="M60.12 10.0073C62.127 9.3853 63.274 7.8403 63.274 5.7413C63.274 2.9123 61.263 1.1543 58.027 1.1543H53.167V1.4043L53.236 1.4403C53.648 1.6553 53.668 2.2753 53.668 3.3523V17.3133H55.037V10.3063H58.027C58.255 10.3063 58.488 10.2933 58.756 10.2693L63.524 17.3133H65.066L60.12 10.0073ZM61.813 5.7413C61.813 7.8843 60.458 9.1633 58.185 9.1633L55.037 9.1843V2.2963H58.186C60.458 2.2963 61.813 3.5843 61.813 5.7413Z" fill="#858C97"/>
<path d="M68.9657 16.1723V9.6463H76.0647V8.5033H68.9657V2.2953H76.2697V1.1543H67.0947V1.4043L67.1637 1.4393C67.5757 1.6553 67.5967 2.2753 67.5967 3.3513V17.3123H76.5197V16.1713H68.9657V16.1723Z" fill="#858C97"/>
<path d="M96.4541 14.9497C97.6361 13.3957 98.2601 11.1827 98.2601 8.53968V8.41168H96.9581V8.53968C96.9581 11.4967 96.2381 13.1467 95.5971 14.0287L90.5781 8.55068C92.4681 7.53568 94.5731 6.37368 94.5961 4.14768V4.03468C94.5961 1.59268 92.6381 0.72168 90.8051 0.72168C88.5521 0.72168 86.8341 2.30168 86.8111 4.39868V4.44468C86.8111 6.30268 87.7931 7.45568 88.6291 8.37668L88.5011 8.45668C88.2331 8.62168 87.9801 8.77868 87.7541 8.93568C85.9551 10.1347 85.1061 11.4547 85.0811 13.0907V13.1827C85.0811 13.9367 85.3391 17.7007 90.4411 17.7007C92.4941 17.7007 94.2121 17.1057 95.5511 15.9317L96.8231 17.3137H98.6011L96.4541 14.9497ZM88.1801 4.55768V4.35568C88.2211 2.72168 89.5761 1.83968 90.8281 1.83968C91.4001 1.83968 93.2711 2.00268 93.2711 4.10168C93.2711 5.89668 91.3861 6.91068 89.8311 7.72068C89.0431 6.86868 88.1801 5.89668 88.1801 4.55768ZM90.6921 16.5347C88.1941 16.5347 86.4501 15.1187 86.4501 13.0897C86.4501 11.1257 87.7751 10.1667 89.3931 9.22368L94.7451 15.0407C93.3391 16.3387 91.6081 16.5347 90.6921 16.5347Z" fill="#858C97"/>
<path d="M113.211 1.1543H108.35V1.4043L108.42 1.4393C108.831 1.6553 108.852 2.2753 108.852 3.3513V17.3123H110.221V10.3043H113.211C116.446 10.3043 118.457 8.5553 118.457 5.7413C118.457 2.9123 116.446 1.1543 113.211 1.1543ZM113.368 9.1633L110.221 9.1843V2.2963H113.37C115.641 2.2963 116.997 3.5843 116.997 5.7413C116.997 7.8843 115.641 9.1633 113.368 9.1633Z" fill="#858C97"/>
<path d="M125.932 1.1543H125.219L118.122 17.3353H119.493L121.792 11.9443H129.178L131.522 17.3353H133.029L125.932 1.1543ZM122.286 10.8243L125.463 3.3553L128.703 10.8243H122.286Z" fill="#858C97"/>
<path d="M147.556 1.1543V2.2963H152.947V17.3123H154.315V2.2963H159.686V1.1543H147.556Z" fill="#858C97"/>
<path d="M175.41 1.1543V14.8503L164.237 1.2023L164.198 1.1553H162.328V1.4053L162.395 1.4403C162.808 1.6563 162.828 2.2593 162.828 3.3073L162.806 17.3133H164.13V3.1863L175.622 17.2673L175.66 17.3133H176.688V1.1543H175.41Z" fill="#858C97"/>
<path d="M182.209 16.1723V9.6463H189.308V8.5033H182.209V2.2953H189.512V1.1543H180.339V1.4043L180.406 1.4393C180.819 1.6553 180.839 2.2753 180.839 3.3513V17.3123H189.763V16.1713H182.209V16.1723Z" fill="#858C97"/>
<path d="M22.9398 16.7006L24.0478 17.9996H25.7898L24.0588 15.9686C25.9738 14.4166 27.1028 11.9476 27.1028 9.2436C27.1028 4.3316 23.6698 0.766602 18.9418 0.766602C14.2998 0.766602 10.7998 4.4116 10.7998 9.2436C10.7998 11.7066 11.8258 14.1236 13.5368 15.7046C14.9168 17.1586 17.5568 17.6986 18.8958 17.6986C20.2898 17.6986 21.5668 17.4126 22.6978 16.8476L22.9398 16.7006ZM21.9178 15.8856C21.0008 16.3466 20.0008 16.5796 18.9408 16.5796C15.1028 16.5796 12.2098 13.4266 12.2098 9.2436C12.2098 5.0626 15.1038 1.9096 18.9408 1.9096C22.8658 1.9096 25.7148 4.9946 25.7148 9.2436C25.7148 11.5766 24.8168 13.6456 23.2328 15.0066L21.0278 12.4806H19.2698L22.1298 15.7536L21.9178 15.8856Z" fill="#858C97"/>
</g>
<defs>
<clipPath id="clip0">
<rect width="216" height="18" fill="white"/>
</clipPath>
</defs>
</svg>
