<svg width="220" height="21" viewBox="0 0 220 21" fill="none" xmlns="http://www.w3.org/2000/svg">
<path d="M12 19.0106C10.7778 20.0054 9.44444 20.558 8 20.558C7.11111 20.558 6.22222 20.4475 5.11111 20.1159C4 19.7843 3.33333 19.6738 3.22222 19.6738C2.55556 19.6738 2.22222 20.0054 2.33333 20.558L2.11111 20.6685L0 14.0369L0.222222 13.9264C1 15.3633 1.77778 16.4685 2.44444 17.3527C3.22222 18.2369 4 18.9001 4.66667 19.3422C5.33333 19.6738 6 20.0054 6.44445 20.1159C6.88889 20.2264 7.44444 20.3369 8 20.3369C9.22222 20.3369 10.2222 20.0054 11 19.2317C11.7778 18.458 12.2222 17.5738 12.2222 16.5791C12.2222 14.5896 10.7778 13.0422 7.77778 11.9369L5.33333 10.9422C4 10.3896 2.88889 9.72642 2 8.84221C1.11111 8.06852 0.666667 6.96326 0.666667 5.63695C0.666667 4.2001 1.22222 3.09484 2.22222 2.21063C3.22222 1.32642 4.55556 0.884313 6.11111 0.884313C6.66667 0.884313 7.33333 0.99484 8.22222 1.10537C9.11111 1.32642 9.66667 1.43694 9.88889 1.43694C10.2222 1.43694 10.4444 1.32642 10.6667 1.21589C10.7778 1.10537 10.7778 0.884313 10.7778 0.552734H11L13.3333 6.52116L13.1111 6.63168C11.8889 4.64221 10.7778 3.20537 9.66667 2.43168C8.55556 1.658 7.44444 1.32642 6.22222 1.32642C5 1.32642 4 1.658 3.33333 2.21063C2.55556 2.65273 2.11111 3.53695 2.11111 4.42116C2.11111 5.41589 2.44444 6.18958 3.11111 6.85273C3.77778 7.51589 4.88889 8.06852 6.33333 8.62116L8.77778 9.50537C12.1111 10.7212 13.7778 12.4896 13.7778 14.8106C13.7778 16.5791 13.2222 17.9054 12 19.0106Z" fill="#858C97"/>
<path d="M28.4443 18.679C27.3332 19.7842 25.8888 20.3369 23.8888 20.3369C21.6666 20.3369 19.9999 19.8948 18.7777 18.9C17.6666 17.9053 16.9999 16.3579 16.9999 14.2579V2.98424C16.9999 2.32108 16.8888 1.9895 16.6666 1.76845C16.4443 1.5474 16.111 1.43687 15.4443 1.43687V1.21582H16.111C16.3332 1.21582 16.6666 1.21582 17.111 1.21582C17.5554 1.21582 17.8888 1.21582 18.2221 1.21582C18.5554 1.21582 18.8888 1.21582 19.3332 1.21582C19.7777 1.21582 20.111 1.21582 20.3332 1.21582H20.9999V1.43687H20.8888C20.3332 1.43687 19.8888 1.5474 19.7777 1.76845C19.5554 1.9895 19.4443 2.43161 19.4443 2.98424V13.2632C19.4443 15.5842 19.8888 17.3527 20.6666 18.4579C21.4443 19.5632 22.6666 20.0053 24.4443 20.0053C25.9999 20.0053 27.3332 19.4527 28.2221 18.4579C29.2221 17.4632 29.6666 16.0263 29.6666 14.2579V4.97372C29.6666 2.65266 28.7777 1.43687 27.111 1.43687H26.9999V1.21582H27.6666C27.7777 1.21582 28.111 1.21582 28.5554 1.21582C28.9999 1.21582 29.4443 1.21582 29.7777 1.21582C30.111 1.21582 30.4443 1.21582 30.9999 1.21582C31.4443 1.21582 31.7777 1.21582 31.8888 1.21582H32.5554V1.43687C30.8888 1.43687 29.9999 2.65266 29.9999 4.97372V14.2579C29.9999 16.1369 29.4443 17.5737 28.4443 18.679Z" fill="#858C97"/>
<path d="M39.0001 20.2263C38.6668 20.2263 38.3334 20.2263 37.7779 20.2263C37.2223 20.2263 36.7779 20.2263 36.4446 20.2263C36.1112 20.2263 35.7779 20.2263 35.2223 20.2263C34.7779 20.2263 34.4446 20.2263 34.2223 20.2263H33.5557V20.0053C34.1112 20.0053 34.5557 19.8948 34.7779 19.6737C35.0001 19.4527 35.1112 19.0106 35.1112 18.4579V2.98424C35.1112 2.32108 35.0001 1.9895 34.7779 1.76845C34.5557 1.5474 34.2223 1.43687 33.5557 1.43687V1.21582H34.2223C34.4446 1.21582 34.7779 1.21582 35.2223 1.21582C35.6668 1.21582 36.0001 1.21582 36.3334 1.21582C36.7779 1.21582 37.2223 1.21582 37.7779 1.21582C38.3334 1.21582 38.7779 1.21582 39.0001 1.21582H41.7779C43.6668 1.21582 45.2223 1.65793 46.4446 2.54214C47.6668 3.42635 48.2223 4.64214 48.2223 6.30003C48.2223 7.95793 47.6668 9.17372 46.4446 10.1685C45.2223 11.0527 43.6668 11.4948 41.7779 11.4948H37.5557V18.4579C37.5557 19.1211 37.6668 19.4527 37.889 19.6737C38.1112 19.8948 38.5557 20.0053 39.3334 20.0053H40.1112V20.2263H39.0001ZM44.6668 10.0579C45.2223 9.28424 45.4446 8.06845 45.4446 6.30003C45.4446 4.64214 45.2223 3.42635 44.6668 2.65266C44.1112 1.87898 43.1112 1.5474 41.5557 1.5474H37.4446V11.2737H41.5557C43.1112 11.1632 44.1112 10.8316 44.6668 10.0579Z" fill="#858C97"/>
<path d="M62.4448 20.9997C62.4448 20.7786 62.4448 20.5576 62.2225 20.3365C62.1114 20.226 61.7781 20.1154 61.4448 20.1154H55.0003C54.667 20.1154 54.3337 20.1154 53.7781 20.1154C53.2225 20.1154 52.7781 20.1154 52.4448 20.1154C52.1114 20.1154 51.7781 20.1154 51.3337 20.1154C50.8892 20.1154 50.5559 20.1154 50.3337 20.1154H49.667V19.8944C50.2225 19.8944 50.667 19.7839 50.8892 19.5628C51.1114 19.3418 51.2225 18.8997 51.2225 18.347V2.98387C51.2225 2.32071 51.1114 1.98913 50.8892 1.76808C50.667 1.54702 50.3337 1.4365 49.667 1.4365V1.21545H50.3337C50.5559 1.21545 50.8892 1.21545 51.3337 1.21545C51.7781 1.21545 52.1114 1.21545 52.4448 1.21545C52.7781 1.21545 53.2225 1.21545 53.7781 1.21545C54.3337 1.21545 54.7781 1.21545 55.0003 1.21545H61.0003C61.3337 1.21545 61.667 1.10492 61.7781 0.994387C62.0003 0.883861 62.0003 0.662808 62.0003 0.331229L62.2225 0.220703L64.667 6.63124L64.4448 6.74176C62.7781 4.31018 61.667 2.87334 61.1114 2.43124C60.4448 1.76808 59.5559 1.4365 58.4448 1.4365H53.4448V10.3891H56.7781C57.7781 10.3891 58.4448 10.0576 58.8892 9.50492C59.4448 8.95229 59.7781 7.95755 59.8892 6.63124H60.1114V14.4786H59.8892C59.7781 13.926 59.7781 13.4839 59.667 13.2628C59.5559 12.9312 59.5559 12.5997 59.3337 12.2681C59.2225 11.9365 59.0003 11.6049 58.8892 11.3839C58.667 11.1628 58.4448 11.0523 58.1114 10.8312C57.7781 10.7207 57.4448 10.6102 57.0003 10.6102H53.667V19.8944H58.8892C59.5559 19.8944 60.0003 19.7839 60.3337 19.6733C60.667 19.5628 61.1114 19.2312 61.5559 18.6786C62.3337 17.7944 63.4448 16.247 64.8892 13.926L65.1114 14.0365L62.667 20.9997H62.4448Z" fill="#858C97"/>
<path d="M82.4447 20.1158C82.0002 20.1158 81.5558 20.1158 81.2224 20.1158C81.0002 20.1158 80.6669 20.1158 80.3335 20.1158C80.0002 20.1158 79.6669 20.1158 79.5558 20.1158L74.6669 11.1632H71.0002V18.3474C71.0002 19.0106 71.1113 19.3421 71.3335 19.5632C71.5558 19.7842 71.8891 19.8948 72.5558 19.8948H72.6669V20.1158H72.0002C71.778 20.1158 71.4447 20.1158 71.0002 20.1158C70.5558 20.1158 70.2224 20.1158 69.8891 20.1158C69.5558 20.1158 69.2224 20.1158 68.778 20.1158C68.3336 20.1158 68.0002 20.1158 67.778 20.1158H67.1113V19.8948C67.6669 19.8948 68.1113 19.7842 68.3336 19.5632C68.5558 19.3421 68.6669 18.9 68.6669 18.3474V2.98424C68.6669 2.32108 68.5558 1.9895 68.3336 1.76845C68.1113 1.5474 67.778 1.43687 67.1113 1.43687V1.21582H67.778C68.0002 1.21582 68.3336 1.21582 68.778 1.21582C69.2224 1.21582 69.5558 1.21582 69.8891 1.21582C70.2224 1.21582 70.6669 1.21582 71.2224 1.21582C71.778 1.21582 72.1113 1.21582 72.4447 1.21582H75.3335C77.2224 1.21582 78.778 1.65793 79.8891 2.54214C81.1113 3.42635 81.6669 4.64214 81.6669 6.1895C81.6669 7.62635 81.1113 8.84214 79.8891 9.72635C78.6669 10.6106 77.2224 11.1632 75.2224 11.1632H75.0002C75.3336 11.7158 75.778 12.1579 76.2224 12.379C76.6669 12.6 77.3336 12.7106 78.2224 12.7106L80.778 17.3527C81.3336 18.4579 81.8891 19.1211 82.2224 19.4527C82.5558 19.7842 83.1113 19.8948 83.778 20.0053V20.2263C83.4447 20.2263 82.8891 20.1158 82.4447 20.1158ZM78.2224 2.65266C77.6669 1.87898 76.6669 1.43687 75.1113 1.43687H71.0002V10.9421H75.2224C76.6669 10.9421 77.6669 10.6106 78.2224 9.83687C78.778 9.06319 79.1113 7.8474 79.1113 6.1895C79.1113 4.64214 78.778 3.42635 78.2224 2.65266Z" fill="#858C97"/>
<path d="M90.5558 20.2263C90.2224 20.2263 89.8891 20.2263 89.3336 20.2263C88.778 20.2263 88.3336 20.2263 88.0002 20.2263C87.6669 20.2263 87.3336 20.2263 86.778 20.2263C86.3336 20.2263 86.0002 20.2263 85.778 20.2263H85.1113V20.0053C85.6669 20.0053 86.1113 19.8948 86.3336 19.6737C86.5558 19.4527 86.6669 19.0106 86.6669 18.4579V2.98424C86.6669 2.32108 86.5558 1.9895 86.3336 1.76845C86.1113 1.5474 85.778 1.43687 85.1113 1.43687V1.21582H85.778C86.0002 1.21582 86.3336 1.21582 86.778 1.21582C87.2224 1.21582 87.5558 1.21582 87.8891 1.21582C88.3336 1.21582 88.778 1.21582 89.3336 1.21582C89.8891 1.21582 90.3336 1.21582 90.5558 1.21582H93.3336C95.2224 1.21582 96.778 1.65793 98.0002 2.54214C99.2224 3.42635 99.778 4.64214 99.778 6.30003C99.778 7.95793 99.2224 9.17372 98.0002 10.1685C96.778 11.0527 95.2224 11.4948 93.3336 11.4948H89.1113V18.4579C89.1113 19.1211 89.2224 19.4527 89.4447 19.6737C89.6669 19.8948 90.1113 20.0053 90.8891 20.0053H91.6669V20.2263H90.5558ZM96.2224 10.0579C96.778 9.28424 97.0002 8.06845 97.0002 6.30003C97.0002 4.64214 96.778 3.42635 96.2224 2.65266C95.6669 1.87898 94.6669 1.5474 93.1113 1.5474H89.0002V11.2737H93.2224C94.6669 11.1632 95.6669 10.8316 96.2224 10.0579Z" fill="#858C97"/>
<path d="M103.778 17.6846C102.223 15.8056 101.334 13.4846 101.334 10.7214C101.334 7.84775 102.112 5.52669 103.778 3.75827C105.334 1.87933 107.334 0.995117 109.778 0.995117C112.223 0.995117 114.223 1.87933 115.778 3.75827C117.334 5.63722 118.223 7.95827 118.223 10.7214C118.223 13.5951 117.445 15.9162 115.778 17.6846C114.223 19.5635 112.112 20.4477 109.778 20.4477C107.334 20.4477 105.334 19.5635 103.778 17.6846ZM115.445 10.7214C115.445 4.42143 113.556 1.21617 109.778 1.21617C106.001 1.21617 104.112 4.42143 104.112 10.7214C104.112 17.0214 106.001 20.2267 109.778 20.2267C113.556 20.2267 115.445 17.0214 115.445 10.7214Z" fill="#858C97"/>
<path d="M132.223 19.0108C131 20.0055 129.667 20.5582 128.223 20.5582C127.334 20.5582 126.445 20.4476 125.334 20.1161C124.223 19.7845 123.556 19.674 123.445 19.674C122.778 19.674 122.445 20.0055 122.556 20.5582L122.334 20.6687L120.223 14.0371L120.445 13.9266C121.223 15.3634 122 16.4687 122.667 17.3529C123.445 18.2371 124.223 18.9003 124.889 19.3424C125.556 19.674 126.223 20.0055 126.667 20.1161C127.112 20.2266 127.667 20.3371 128.223 20.3371C129.445 20.3371 130.445 20.0055 131.223 19.2319C132 18.4582 132.445 17.574 132.445 16.5792C132.445 14.5897 131 13.0424 128 11.9371L125.667 11.0529C124.334 10.5003 123.223 9.83712 122.334 8.95291C121.445 8.0687 121 6.96343 121 5.74764C121 4.3108 121.556 3.20554 122.556 2.32133C123.556 1.43712 124.889 0.995014 126.445 0.995014C127 0.995014 127.667 1.10554 128.556 1.21606C129.445 1.43712 129.889 1.43712 130.112 1.43712C130.445 1.43712 130.667 1.32659 130.889 1.21606C131.112 1.10554 131.112 0.884488 131.112 0.552909L131.334 0.442383L133.667 6.4108L133.223 6.52133C132 4.53185 130.889 3.09501 129.778 2.32133C128.667 1.54764 127.556 1.21606 126.334 1.21606C125.112 1.21606 124.112 1.54764 123.445 2.10028C122.778 2.76343 122.445 3.53712 122.445 4.42133C122.445 5.41606 122.778 6.18975 123.445 6.85291C124.112 7.51606 125.223 8.0687 126.667 8.62133L129 9.50554C132.334 10.7213 134 12.4897 134 14.8108C134 16.5792 133.334 17.9055 132.223 19.0108Z" fill="#858C97"/>
<path d="M140.222 19.6737C140.444 19.8948 140.778 20.0053 141.444 20.0053H141.556V20.2263H140.889C140.667 20.2263 140.333 20.2263 139.889 20.2263C139.444 20.2263 139.111 20.2263 138.778 20.2263C138.444 20.2263 138.111 20.2263 137.667 20.2263C137.222 20.2263 136.889 20.2263 136.667 20.2263H136V20.0053C136.556 20.0053 137 19.8948 137.222 19.6737C137.444 19.4527 137.556 19.0106 137.556 18.4579V2.98424C137.556 2.32108 137.444 1.9895 137.222 1.76845C137 1.5474 136.667 1.43687 136 1.43687V1.21582H136.667C136.889 1.21582 137.222 1.21582 137.667 1.21582C138.111 1.21582 138.444 1.21582 138.778 1.21582C139.111 1.21582 139.444 1.21582 139.889 1.21582C140.333 1.21582 140.667 1.21582 140.889 1.21582H141.556V1.43687H141.444C140.889 1.43687 140.444 1.5474 140.222 1.76845C140 1.9895 139.889 2.43161 139.889 2.98424V18.3474C139.889 19.0106 140 19.4527 140.222 19.6737Z" fill="#858C97"/>
<path d="M154.444 20.226H153.778C153.555 20.226 153.222 20.226 152.778 20.226C152.333 20.226 152 20.226 151.666 20.226C151.333 20.226 151 20.226 150.555 20.226C150.111 20.226 149.778 20.226 149.555 20.226H148.889V20.0049C149.444 20.0049 149.889 19.8944 150.111 19.6733C150.333 19.4523 150.444 19.0102 150.444 18.4576V1.4365H148.222C147.666 1.4365 147.333 1.54702 147.111 1.65755C146.889 1.76808 146.555 1.98913 146.222 2.43124C145.444 3.42597 144.333 5.19439 143.111 7.62597L142.889 7.51545L144.889 0.220703H145.111C145.111 0.773335 145.444 1.10492 146.222 1.10492H149.222C149.444 1.10492 149.778 1.10492 150.333 1.10492C150.889 1.10492 151.333 1.10492 151.778 1.10492C152.111 1.10492 152.666 1.10492 153.222 1.10492C153.778 1.10492 154.111 1.10492 154.333 1.10492H157.333C158.111 1.10492 158.444 0.773335 158.444 0.220703H158.666L160.666 7.51545L160.444 7.62597C159.111 4.97334 158 3.31545 157.333 2.43124C157 1.98913 156.666 1.76808 156.444 1.65755C156.222 1.54702 155.778 1.4365 155.333 1.4365H153.111V18.347C153.111 19.0102 153.222 19.4523 153.444 19.5628C153.666 19.7839 154 19.8944 154.555 19.8944H154.666V20.226H154.444Z" fill="#858C97"/>
<path d="M166.111 19.6737C166.333 19.8948 166.666 20.0053 167.333 20.0053H167.444V20.2263H166.778C166.555 20.2263 166.222 20.2263 165.778 20.2263C165.333 20.2263 165 20.2263 164.666 20.2263C164.333 20.2263 164 20.2263 163.555 20.2263C163.111 20.2263 162.778 20.2263 162.555 20.2263H161.889V20.0053C162.444 20.0053 162.889 19.8948 163.111 19.6737C163.333 19.4527 163.444 19.0106 163.444 18.4579V2.98424C163.444 2.32108 163.333 1.9895 163.111 1.76845C162.889 1.5474 162.555 1.43687 161.889 1.43687V1.21582H162.555C162.778 1.21582 163.111 1.21582 163.555 1.21582C164 1.21582 164.333 1.21582 164.666 1.21582C165 1.21582 165.333 1.21582 165.778 1.21582C166.222 1.21582 166.555 1.21582 166.778 1.21582H167.444V1.43687H167.333C166.778 1.43687 166.333 1.5474 166.111 1.76845C165.889 1.9895 165.778 2.43161 165.778 2.98424V18.3474C165.778 19.0106 165.889 19.4527 166.111 19.6737Z" fill="#858C97"/>
<path d="M171.666 17.6846C170.111 15.8056 169.222 13.4846 169.222 10.7214C169.222 7.84775 169.999 5.52669 171.666 3.75827C173.222 1.87933 175.222 0.995117 177.666 0.995117C180.111 0.995117 182.111 1.87933 183.666 3.75827C185.222 5.63722 186.111 7.95827 186.111 10.7214C186.111 13.5951 185.333 15.9162 183.666 17.6846C182.111 19.5635 179.999 20.4477 177.666 20.4477C175.333 20.4477 173.222 19.5635 171.666 17.6846ZM183.333 10.7214C183.333 4.42143 181.444 1.21617 177.666 1.21617C173.888 1.21617 171.999 4.42143 171.999 10.7214C171.999 17.0214 173.888 20.2267 177.666 20.2267C181.444 20.2267 183.333 17.0214 183.333 10.7214Z" fill="#858C97"/>
<path d="M204 20.1158C203.667 20.1158 203.556 20.1158 203.445 20.1158C203.222 20.1158 203 20.1158 202.667 20.1158C202.334 20.1158 202.111 20.1158 201.889 20.1158L190 3.20529V16.4685C190 18.7895 190.889 20.0053 192.556 20.0053H192.667V20.2263H192C191.889 20.2263 191.556 20.2263 191.111 20.2263C190.667 20.2263 190.222 20.2263 189.889 20.2263C189.556 20.2263 189.222 20.2263 188.667 20.2263C188.222 20.2263 187.889 20.2263 187.778 20.2263H187.111V20.0053H187.222C188.889 20.0053 189.667 18.7895 189.667 16.4685V2.87371C189.222 2.21056 188.889 1.76845 188.556 1.65793C188.334 1.5474 188 1.43687 187.556 1.43687H187.667V1.21582H188C188.334 1.21582 188.556 1.21582 188.889 1.21582C189.222 1.21582 189.445 1.21582 189.667 1.21582C189.889 1.21582 190.222 1.21582 190.556 1.21582C190.889 1.21582 191.222 1.21582 191.445 1.21582L202.889 17.4632V4.97372C202.889 2.65266 202 1.43687 200.334 1.43687H200.222V1.21582H200.889C201 1.21582 201.334 1.21582 201.778 1.21582C202.222 1.21582 202.667 1.21582 203 1.21582C203.334 1.21582 203.667 1.21582 204.222 1.21582C204.667 1.21582 205 1.21582 205.111 1.21582H205.778V1.43687H205.667C204 1.43687 203.111 2.65266 203.111 4.97372V17.9053L204.667 20.2263C204.556 20.2263 204.334 20.2263 204 20.1158Z" fill="#858C97"/>
<path d="M209.334 10.0579C208.223 8.95263 207.667 7.51579 207.667 5.85789C207.667 4.08947 208.223 2.76316 209.334 1.65789C210.445 0.552632 211.889 0 213.556 0C215.223 0 216.667 0.552632 217.778 1.65789C218.889 2.76316 219.445 4.2 219.445 5.85789C219.445 7.62632 218.889 8.95263 217.778 10.0579C216.667 11.1632 215.223 11.7158 213.556 11.7158C211.778 11.7158 210.445 11.1632 209.334 10.0579ZM217.445 9.83684C218.556 8.8421 219.111 7.51579 219.111 5.85789C219.111 4.2 218.556 2.87368 217.445 1.87895C216.334 0.884211 215 0.331579 213.445 0.331579C211.889 0.331579 210.556 0.884211 209.445 1.87895C208.334 2.87368 207.778 4.2 207.778 5.85789C207.778 7.51579 208.334 8.8421 209.445 9.83684C210.556 10.8316 211.889 11.3842 213.445 11.3842C215.111 11.3842 216.334 10.9421 217.445 9.83684ZM216.445 9.17368C216.223 9.17368 216 9.17368 215.889 9.17368C215.778 9.17368 215.667 9.17368 215.556 9.17368C215.334 9.17368 215.223 9.17368 215.223 9.17368L213.667 6.18947H212.445V8.51053C212.445 8.73158 212.445 8.8421 212.556 8.95263C212.667 9.06316 212.889 9.06316 213.223 9.06316V9.28421H212.778C212.667 9.28421 212.556 9.28421 212.334 9.28421C212.111 9.28421 212 9.28421 211.889 9.28421C211.778 9.28421 211.667 9.28421 211.445 9.28421C211.223 9.28421 211.111 9.28421 211 9.28421H210.556V8.95263C210.889 8.95263 211.111 8.95263 211.223 8.8421C211.334 8.73158 211.334 8.62105 211.334 8.4V3.31579C211.334 3.09474 211.334 2.98421 211.223 2.87368C211.111 2.76316 210.889 2.76316 210.556 2.76316V2.54211H211C211.111 2.54211 211.223 2.54211 211.445 2.54211C211.667 2.54211 211.778 2.54211 211.889 2.54211C212 2.54211 212.111 2.54211 212.334 2.54211C212.556 2.54211 212.667 2.54211 212.778 2.54211H214C214.778 2.54211 215.334 2.65263 215.778 2.98421C216.223 3.31579 216.445 3.75789 216.445 4.31053C216.445 4.86316 216.223 5.30526 215.889 5.63684C215.556 5.96842 214.889 6.18947 214.111 6.18947H214C214.223 6.52105 214.445 6.63158 214.889 6.63158H215.334L216 8.06842C216.223 8.51053 216.334 8.73158 216.556 8.8421C216.667 8.95263 216.889 8.95263 217.223 8.95263V9.17368C216.889 9.17368 216.778 9.17368 216.445 9.17368ZM215 3.20526C214.778 2.98421 214.445 2.76316 213.889 2.76316H212.334V5.96842H213.889C214.778 5.96842 215.223 5.41579 215.223 4.42105C215.334 3.75789 215.223 3.42632 215 3.20526Z" fill="#858C97"/>
</svg>
