<svg width="145" height="22" viewBox="0 0 145 22" fill="none" xmlns="http://www.w3.org/2000/svg">
<path fill-rule="evenodd" clip-rule="evenodd" d="M5.30222 18.7195C5.30222 19.3014 5.69491 19.5893 6.26663 19.7314V20.1964H0V19.7314C0.539175 19.5893 0.931857 19.3014 0.931857 18.7195V2.37241C0.931857 1.79449 0.539175 1.50651 0 1.36057V0.895508H12.5658C16.8772 0.895508 20.8244 1.70693 20.8244 6.7681C20.8244 10.0683 18.5354 11.6872 15.3695 12.1523L19.2882 17.5073C19.9515 18.4316 20.6738 19.6497 21.9698 19.7314V20.1964H14.7062V19.7314C14.9768 19.708 15.4306 19.5602 15.4306 19.2138C15.4306 18.8071 14.9768 18.3129 14.7368 17.9957L10.698 12.3274H5.30222V18.7195ZM12.1141 9.14399C14.043 9.14399 16.454 9.02724 16.454 6.62605C16.454 4.10811 14.104 4.07893 12.1141 4.07893H5.30222V9.14399H12.1141Z" fill="#858C97"/>
<path fill-rule="evenodd" clip-rule="evenodd" d="M45.8142 1.35861C45.2404 1.50455 44.8518 1.79449 44.8518 2.39965V13.1933C44.8518 19.3889 40.5689 20.5428 34.9045 20.5428C29.3581 20.5428 24.9572 19.4181 24.9572 13.1933V2.39965C24.9572 1.79449 24.5646 1.50455 24.0254 1.35861V0.893555H30.292V1.35861C29.7508 1.50455 29.3581 1.79449 29.3581 2.39965V12.6154C29.3581 13.7401 29.4192 14.9874 30.2615 15.7949C31.466 17.0111 33.4274 17.2426 35.0836 17.2426C38.9127 17.2426 40.8131 16.2639 40.8131 12.4403V2.39965C40.8131 1.79449 40.4204 1.50455 39.8751 1.35861V0.893555H45.8142V1.35861Z" fill="#858C97"/>
<path fill-rule="evenodd" clip-rule="evenodd" d="M53.4997 18.7195C53.4997 19.3014 53.8923 19.5893 54.462 19.7314V20.1964H48.1934V19.7314C48.7366 19.5893 49.1293 19.3014 49.1293 18.7195V2.37241C49.1293 1.79449 48.7366 1.50651 48.1934 1.36057V0.895508H60.7327C62.6921 0.895508 64.863 0.983071 66.4907 2.17199C67.9333 3.21302 68.6271 4.91954 68.6271 6.62605C68.6271 8.30338 67.9333 10.0975 66.4907 11.1112C64.802 12.269 62.7246 12.3566 60.7327 12.3566H53.4997V18.7195ZM60.218 9.19847C62.0593 9.19847 64.1387 8.79179 64.1387 6.62605C64.1387 4.48367 62.4215 4.07893 60.5496 4.07893H53.4997V9.19847H60.218Z" fill="#858C97"/>
<path fill-rule="evenodd" clip-rule="evenodd" d="M75.9868 17.0126H88.9188C89.5496 17.0126 89.8507 16.641 90.0033 16.0883H90.457V21.0911H90.0033C89.8507 20.5716 89.5496 20.196 88.9188 20.196H70.6846V19.731C71.2237 19.5889 71.6164 19.3009 71.6164 18.7191V2.372C71.6164 1.76489 71.2237 1.50609 70.6846 1.36015V0.895094H88.5872C89.1894 0.895094 89.4885 0.517597 89.6411 0H90.1213V4.97361H89.6411C89.4885 4.45406 89.1894 4.07851 88.5872 4.07851H75.9868V8.65127H84.1558C84.7886 8.65127 85.0571 8.27378 85.2097 7.75034H85.6919V12.6169H85.2097C85.0571 12.0935 84.7886 11.716 84.1558 11.716H75.9868V17.0126Z" fill="#858C97"/>
<path fill-rule="evenodd" clip-rule="evenodd" d="M98.1684 18.7195C98.1684 19.3014 98.5632 19.5893 99.1369 19.7314V20.1964H92.8662V19.7314C93.4054 19.5893 93.7981 19.3014 93.7981 18.7195V2.37241C93.7981 1.79449 93.4054 1.50651 92.8662 1.36057V0.895508H105.434C109.745 0.895508 113.693 1.70693 113.693 6.7681C113.693 10.0683 111.402 11.6872 108.238 12.1523L112.154 17.5073C112.82 18.4316 113.54 19.6497 114.838 19.7314V20.1964H107.577V19.7314C107.845 19.708 108.297 19.5602 108.297 19.2138C108.297 18.8071 107.845 18.3129 107.603 17.9957L103.562 12.3274H98.1684V18.7195ZM104.98 9.14399C106.911 9.14399 109.322 9.02724 109.322 6.62605C109.322 4.10811 106.97 4.07893 104.98 4.07893H98.1684V9.14399H104.98Z" fill="#858C97"/>
<path fill-rule="evenodd" clip-rule="evenodd" d="M127.605 18.7191C127.605 19.3301 127.996 19.5889 128.539 19.731V20.196H122.299V19.731C122.84 19.5889 123.232 19.3009 123.232 18.7191V4.07851H116.992C116.362 4.07851 116.091 4.45406 115.938 4.97361H115.454V0H115.938C116.091 0.517597 116.362 0.895094 116.992 0.895094H133.841C134.478 0.895094 134.748 0.517597 134.899 0H135.383V4.97361H134.899C134.748 4.45406 134.478 4.07851 133.841 4.07851H127.605V18.7191Z" fill="#858C97"/>
<mask id="mask0" mask-type="alpha" maskUnits="userSpaceOnUse" x="138" y="0" width="7" height="21">
<path d="M144.42 20.1964V0.895508H138.15V20.1964H144.42Z" fill="white"/>
</mask>
<g mask="url(#mask0)">
<path fill-rule="evenodd" clip-rule="evenodd" d="M144.421 20.1964H138.15V19.7314C138.694 19.5893 139.084 19.3014 139.084 18.7195V2.37241C139.084 1.79449 138.694 1.50651 138.15 1.36057V0.895508H144.421V1.36057C143.845 1.50651 143.453 1.79449 143.453 2.37241V18.7195C143.453 19.3014 143.845 19.5893 144.421 19.7314V20.1964Z" fill="#858C97"/>
</g>
</svg>
