<svg width="220" height="35" viewBox="0 0 220 35" fill="none" xmlns="http://www.w3.org/2000/svg">
<path fill-rule="evenodd" clip-rule="evenodd" d="M0 33.5756C2.70433 33.2418 4.41233 32.5741 5.07655 31.6202C5.59843 30.8572 5.8831 29.1402 5.8831 26.4694V9.68161C5.8831 7.05852 5.59843 5.34158 5.07655 4.5785C4.36488 3.57695 2.65688 2.90925 0 2.5754V1.86001H15.9413V2.5754C13.1895 2.90925 11.529 3.57695 10.8648 4.5308C10.3429 5.29389 10.0582 7.01082 10.0582 9.68161V25.3248C10.0582 27.2802 10.1056 28.711 10.1531 29.5218C10.2005 30.3802 10.4378 31.3341 10.7699 32.4787L16.5581 32.9556C19.9741 32.9556 22.4412 32.431 23.912 31.3341C25.0981 30.5233 26.6637 28.4248 28.6089 25.134L29.2257 25.4202L26.5214 34.291H0V33.5756ZM29.3206 34.291V33.5756C31.0761 33.3372 32.1198 32.9556 32.4994 32.431C32.8789 31.9064 33.0687 30.7141 33.0687 28.7587V19.6494C33.0687 18.5048 32.9738 17.7417 32.7366 17.3601C32.4045 16.7878 31.5505 16.1201 30.1746 15.3093V14.8324L36.2 12.7339L36.7219 12.9247V28.7587C36.7219 30.7141 36.9117 31.9541 37.2438 32.431C37.6234 32.9079 38.6672 33.2895 40.4226 33.528V34.2433H29.3206V34.291ZM37.054 3.72003C37.054 4.38773 36.8168 4.96004 36.3424 5.43697C35.8679 5.91389 35.2986 6.15236 34.6344 6.15236C33.9702 6.15236 33.4008 5.91389 32.9264 5.43697C32.4519 4.96004 32.2147 4.38773 32.2147 3.72003C32.2147 3.05233 32.4519 2.48002 32.9264 2.00309C33.4008 1.52617 33.9702 1.2877 34.6344 1.2877C35.2986 1.2877 35.8679 1.52617 36.3424 2.00309C36.8168 2.48002 37.054 3.05233 37.054 3.72003ZM42.1306 15.214L45.9261 12.9724C45.9261 11.3986 46.0685 10.0155 46.3531 8.72776C46.6378 7.48775 47.1123 6.29543 47.8239 5.10312C48.7728 3.57695 49.9115 2.38463 51.2873 1.47847C52.7581 0.476927 54.3712 0 56.0318 0C57.3128 0 58.4515 0.238463 59.4478 0.667697C60.8237 1.2877 61.5353 2.14617 61.5353 3.2431C61.5353 3.95849 61.2981 4.43542 60.7762 4.76927C60.3018 5.10312 59.6376 5.24619 58.8784 5.24619C58.1668 4.24465 57.4077 3.38618 56.6486 2.76618C55.6048 1.90771 54.6085 1.47847 53.6596 1.47847C51.999 1.47847 50.8129 2.67079 50.1487 5.10312C49.7217 6.58159 49.5319 8.4416 49.5319 10.7785V13.6401H55.6997V15.6432H49.5319V28.711C49.5319 30.7141 49.7217 31.9541 50.1487 32.431C50.5757 32.9079 51.9041 33.2895 54.0866 33.528V34.2433H42.1306V33.528C43.886 33.2895 44.9298 32.9079 45.3094 32.3833C45.6889 31.8587 45.9261 30.6664 45.9261 28.7587V15.6909H42.1306V15.214ZM70.5498 18.4571C70.3125 17.1694 69.8381 16.1201 69.2213 15.3093C68.4148 14.3078 67.4659 13.7832 66.2798 13.7832C65.0462 13.7832 63.955 14.3078 63.0536 15.4047C62.247 16.3109 61.7251 17.4555 61.4404 18.8386L70.5498 18.4571ZM61.1083 22.1294L61.2981 19.7448H75.057C75.057 17.5986 74.3928 15.8817 73.0169 14.594C71.6884 13.3539 69.8855 12.7339 67.7031 12.7339C64.5718 12.7339 62.0098 13.8309 60.0171 16.1201C58.0245 18.3617 57.0281 21.0325 57.0281 24.1802C57.0281 27.0894 57.977 29.5695 59.8748 31.6679C61.7726 33.7664 64.1448 34.8157 67.0389 34.8157C68.7943 34.8157 70.4549 34.291 72.068 33.2418C73.6336 32.1926 74.8672 30.8572 75.7686 29.2833L75.057 28.7587C74.2979 29.7602 73.4913 30.5233 72.5899 31.0479C71.6884 31.5249 70.6446 31.811 69.4585 31.811C66.8965 31.811 64.809 30.8095 63.2433 28.8541C61.82 26.9941 61.1083 24.7525 61.1083 22.1294Z" fill="#858C97"/>
<path fill-rule="evenodd" clip-rule="evenodd" d="M79.0425 2.14535L90.524 1.76381C96.8341 1.76381 101.911 2.81305 105.754 4.91153C108.79 6.58077 110.973 8.87002 112.254 11.6839C113.155 13.6393 113.582 15.8332 113.582 18.1701C113.582 22.3671 112.159 25.8963 109.359 28.8056C105.706 32.5256 100.25 34.3856 92.8962 34.3856H78.7578V33.6702C81.4621 33.3364 83.1701 32.6687 83.8344 31.7148C84.3562 30.9517 84.6409 29.2348 84.6409 26.5163V9.87157C84.6409 7.20078 84.4037 5.53153 83.8818 4.72076C83.2176 3.71921 81.6045 3.05151 79.0425 2.71767V2.14535ZM88.816 26.9932C88.816 29.521 89.4328 31.1902 90.6189 32.0964C91.6152 32.8594 93.1809 33.241 95.2684 33.241C98.5896 33.241 101.389 32.2394 103.714 30.1887C106.608 27.6609 108.078 23.8932 108.078 18.9332C108.078 13.4962 106.181 9.39464 102.338 6.58077C98.9217 4.00537 94.4145 2.76536 88.816 2.76536V26.9932ZM131.279 18.4563C131.041 17.1685 130.567 16.1193 129.95 15.3085C129.144 14.307 128.195 13.7824 127.009 13.7824C125.775 13.7824 124.684 14.307 123.783 15.4039C122.976 16.3101 122.454 17.4547 122.169 18.8378L131.279 18.4563ZM121.837 22.1286C121.837 24.7517 122.549 26.9932 123.972 28.7579C125.538 30.7133 127.626 31.7148 130.187 31.7148C131.374 31.7148 132.417 31.4764 133.319 30.9517C134.22 30.4748 135.027 29.7117 135.786 28.6625L136.498 29.1871C135.596 30.761 134.315 32.0964 132.749 33.1456C131.184 34.1948 129.523 34.7195 127.768 34.7195C124.874 34.7195 122.502 33.6702 120.651 31.5717C118.753 29.4733 117.805 26.9932 117.805 24.084C117.805 20.9363 118.801 18.2655 120.794 16.0239C122.786 13.7824 125.348 12.6377 128.479 12.6377C130.662 12.6377 132.417 13.2577 133.746 14.4978C135.074 15.7378 135.786 17.4547 135.786 19.6486H122.027L121.837 22.1286ZM138.443 34.2902V33.5748C140.198 33.3364 141.242 32.9548 141.622 32.4302C142.001 31.9056 142.143 30.7133 142.143 28.7579V6.96231C142.143 5.77 142.049 5.00691 141.906 4.67307C141.669 4.14845 140.957 3.43306 139.819 2.62228V2.14535L145.275 0.046875L145.797 0.237646V28.7579C145.797 30.7133 145.986 31.9533 146.319 32.4302C146.698 32.9071 147.742 33.2887 149.497 33.5271V34.2425H138.443V34.2902ZM171.986 28.9963C171.986 29.2348 171.986 29.4256 171.986 29.664C171.986 29.9025 171.986 30.0933 171.986 30.3317C171.986 31.2379 172.176 31.8579 172.46 32.0964C172.793 32.3825 173.267 32.4779 173.884 32.4779L176.066 32.3348L176.256 33.0025L168.19 34.9579L168.285 31.2379C166.815 32.3348 165.486 33.1456 164.253 33.6702C162.687 34.3856 161.216 34.7195 159.698 34.7195C157.373 34.7195 155.855 33.8133 155.048 32.0487C154.621 31.1425 154.432 29.7117 154.432 27.804V19.5055V18.027C154.432 16.6916 154.289 15.8332 153.957 15.4039C153.53 14.8316 152.486 14.5455 150.921 14.5455V13.8301L158.085 13.2101V24.9902V26.0871C158.085 27.8517 158.322 29.1871 158.796 30.0933C159.603 31.6194 160.979 32.3825 163.019 32.3825C163.968 32.3825 164.869 32.1917 165.771 31.8102C166.672 31.4287 167.479 30.904 168.19 30.284V20.0301C168.19 18.2655 168.096 17.0732 167.953 16.5009C167.574 15.2131 166.198 14.5455 163.826 14.5455V13.8301L172.176 13.2101L171.986 28.9963ZM193.383 28.7102C194.57 30.7133 195.518 32.001 196.23 32.5256C196.989 33.0502 197.938 33.4318 199.124 33.5748V34.2902H189.113V33.5748C190.3 33.4318 190.869 33.0025 190.869 32.3348C190.869 32.0964 190.821 31.8579 190.679 31.524C190.537 31.2379 190.3 30.8087 190.015 30.2363L187.358 25.5148C186.551 26.8025 185.935 27.8994 185.413 28.8056C184.416 30.5225 183.942 31.6671 183.942 32.1917C183.942 32.5733 184.084 32.8594 184.322 33.0979C184.559 33.3364 184.938 33.4795 185.365 33.5748V34.2902H177.49V33.5748C179.625 33.1456 181.143 32.4779 181.997 31.6194C182.281 31.2856 182.946 30.4271 183.942 29.044L186.884 24.7994L183.183 18.5516C181.997 16.5962 181.333 15.4993 181.048 15.2608C180.194 14.3547 179.008 13.9254 177.537 13.9254V13.2101H187.785V13.9254C187.073 13.9254 186.599 14.0208 186.314 14.2593C186.03 14.4978 185.84 14.7362 185.84 15.1178C185.84 15.4039 185.887 15.6901 186.03 16.0239C186.077 16.1193 186.219 16.4532 186.457 16.9301L189.113 21.6994C189.873 20.4593 190.489 19.4101 190.964 18.647C191.818 17.1685 192.197 16.0716 192.197 15.4993C192.197 14.5931 191.675 14.0685 190.679 13.9731V13.2577H198.602V13.9731C197.606 14.0685 196.894 14.2116 196.42 14.3547C195.945 14.4978 195.376 14.8316 194.712 15.4039C194.048 15.9762 193.241 16.9778 192.197 18.4086C191.913 18.8378 191.059 20.1732 189.635 22.4147L193.383 28.7102ZM214.781 18.4563C214.544 17.1685 214.069 16.1193 213.452 15.3085C212.646 14.307 211.697 13.7824 210.511 13.7824C209.277 13.7824 208.186 14.307 207.285 15.4039C206.478 16.3101 205.956 17.4547 205.671 18.8378L214.781 18.4563ZM205.339 22.1286C205.339 24.7517 206.051 26.9932 207.474 28.7579C209.04 30.7133 211.128 31.7148 213.69 31.7148C214.876 31.7148 215.919 31.4764 216.821 30.9517C217.722 30.4748 218.529 29.7117 219.288 28.6625L220 29.1871C219.098 30.761 217.817 32.0964 216.252 33.1456C214.686 34.1948 213.025 34.7195 211.222 34.7195C208.328 34.7195 205.956 33.6702 204.106 31.5717C202.208 29.4733 201.259 26.9932 201.259 24.084C201.259 20.9363 202.255 18.2655 204.248 16.0239C206.241 13.7824 208.803 12.6377 211.934 12.6377C214.117 12.6377 215.872 13.2577 217.248 14.4978C218.576 15.7378 219.288 17.4547 219.288 19.6486H205.529L205.339 22.1286Z" fill="#858C97"/>
</svg>
