<svg width="220" height="39" viewBox="0 0 220 39" fill="none" xmlns="http://www.w3.org/2000/svg">
<path d="M10.105 22.3583L8.12107 22.3568L0 0.269577L2.16186 0.271066L9.20497 19.8234L12.9059 9.48277L9.5208 0.27702L11.5314 0.27852L13.9898 7.09681L16.3978 0.281497L18.3788 0.284474L14.9788 9.42021L18.7243 19.8323L25.7066 0.290428L27.8388 0.291917L19.7148 22.3657L17.673 22.3643L13.8949 11.8643L10.105 22.3583ZM53.1169 11.3802C53.1139 17.716 49.0245 22.6904 42.7494 22.6845C36.5026 22.68 32.422 17.7011 32.4265 11.3653C32.4309 5.03107 36.5204 -0.00446511 42.7658 2.97112e-06C49.0423 0.00596042 53.1228 5.04745 53.1169 11.3802ZM51.1063 11.3787C51.1107 6.10043 47.9302 1.6949 42.7658 1.69043C37.6295 1.68596 34.443 6.08852 34.4401 11.3668C34.4356 16.6466 37.6146 21.0208 42.7509 21.0238C47.9154 21.0268 51.1033 16.6585 51.1063 11.3787ZM63.3079 0.317233L63.2931 20.7409L73.8058 20.7468L73.8044 22.406L61.2795 22.397L61.2973 0.315745L63.3079 0.317233ZM75.1403 1.98383V0.327664L91.0266 0.339584V1.99724L84.1792 1.99277L84.1629 22.4149L82.1212 22.4134L82.1375 1.98979L75.1403 1.98383ZM98.2788 22.4253L98.2951 0.34405L111.509 0.35447V2.01213L100.306 2.00468L100.298 10.2096L109.308 10.2155V11.8762L100.298 11.8687L100.291 20.7691L111.613 20.7766V22.4358L98.2788 22.4253ZM119.349 0.360435L126.316 0.364901C131.782 0.369369 133.972 3.17681 133.97 6.49362C133.967 10.2051 131.501 11.8628 128.769 12.6134L134.737 22.4521L132.396 22.4506L126.666 12.883L121.352 12.88L121.345 22.4417H119.332L119.349 0.360435ZM131.927 6.5234C131.93 3.86787 130.278 2.02554 125.863 2.02405L121.359 2.01958L121.352 11.1896L125.855 11.194C130.123 11.197 131.926 9.23851 131.927 6.5234ZM142.616 0.378298H144.628V22.4596H142.616V0.378298ZM154.246 0.385752L156.256 0.388729L168.646 19.253L168.661 0.396171L170.523 0.39766L170.505 22.4804L168.492 22.4775L156.105 3.64596L156.09 22.4685L154.228 22.467L154.246 0.385752ZM188.872 0.111701C191.816 0.11319 194.247 1.32256 195.569 2.8015L194.034 3.82617C193.046 2.82979 191.154 1.89448 188.872 1.8915C183.889 1.88852 180.699 6.19873 180.696 11.477C180.692 16.7568 183.874 21.0432 188.858 21.0462C191.322 21.0492 193.454 19.9634 194.476 18.7272L196.157 19.603C194.805 21.4126 192.13 22.7977 188.856 22.7962C182.609 22.7917 178.68 17.8113 178.684 11.4755C178.689 5.13979 182.627 0.107232 188.872 0.111701ZM203.349 0.422988L205.361 0.424477L205.352 13.3953L216.923 0.433408L219.569 0.434896L211.151 9.54085L220 22.5162L217.507 22.5147L209.828 11.0153L205.349 15.8379L205.344 22.5072L203.332 22.5057L203.349 0.422988ZM14.0729 34.3536C14.0714 36.4626 12.4285 38.1723 10.1628 38.1708L7.91942 38.1694L7.92387 30.5275L10.1688 30.5304C12.3618 30.5319 14.0744 32.0883 14.0729 34.3536ZM13.3671 34.3536C13.3686 32.2447 11.7064 31.1068 10.1584 31.1053L8.61928 31.1038L8.61483 37.596L10.1539 37.5975C11.5774 37.5989 13.3656 36.5668 13.3671 34.3536ZM19.9995 38.1783L20.0039 30.5364L24.5767 30.5409V31.1157L20.7008 31.1128L20.6978 33.9515L23.8161 33.953L23.8146 34.5264L20.6978 34.5249L20.6949 37.6049L24.6123 37.6079V38.1828L19.9995 38.1783ZM34.7752 36.0917C34.7752 37.4187 33.6305 38.2945 32.3316 38.293C31.2195 38.293 30.2735 37.8119 29.6923 37.1343L30.2854 36.7172C30.6798 37.2072 31.4582 37.7091 32.3731 37.7106C33.2464 37.7106 34.0679 37.0851 34.0694 36.1468C34.0709 34.1719 29.9117 34.8481 29.9147 32.416C29.9147 31.2677 30.7791 30.4426 32.213 30.444C33.116 30.4455 33.9893 30.8328 34.4875 31.4166L33.8647 31.7606C33.6441 31.5353 33.3803 31.3572 33.0893 31.2369C32.7983 31.1166 32.4861 31.0566 32.1714 31.0606C31.3796 31.0606 30.6101 31.5283 30.6101 32.3117C30.6086 34.2732 34.7766 33.5449 34.7752 36.0917ZM40.7181 30.5528H41.4135V38.1947H40.7181V30.5528ZM47.4112 34.3789C47.4127 32.1866 48.8792 30.4545 51.0396 30.456C52.079 30.4574 53.1391 30.8968 53.6077 31.4285L53.0665 31.7711C52.724 31.4062 51.7972 31.0711 51.0396 31.0711C49.2632 31.0696 48.1081 32.5604 48.1067 34.3879C48.1052 36.2138 49.1431 37.7196 50.9298 37.7211C51.7631 37.7211 52.6053 37.3457 53.0398 36.9287L53.0413 34.9657H51.4117V34.3909L53.6967 34.3923L53.6937 38.2021H53.0517V37.5543C52.6039 37.9504 51.8135 38.3049 50.8779 38.3049C48.7175 38.3049 47.4098 36.5698 47.4112 34.3789ZM59.8071 30.5677H60.5025L64.7907 37.0955L64.7951 30.5706L65.4386 30.5721L65.4327 38.214L64.7388 38.2126L60.4506 31.6951L60.4462 38.2096H59.8027L59.8071 30.5677ZM71.8634 30.5766H72.5588V38.2185H71.8634V30.5766ZM78.997 30.5811H79.6924L83.9805 37.1089L83.985 30.584L84.6285 30.5855L84.6226 38.2274L83.9272 38.226L79.639 31.7085L79.6346 38.223H78.9911L78.997 30.5811ZM90.5551 34.4117C90.5566 32.2194 92.023 30.4872 94.1834 30.4887C95.2243 30.4887 96.283 30.9281 96.7515 31.4613L96.2103 31.8038C95.8678 31.4389 94.9426 31.1038 94.1834 31.1038C92.4071 31.1023 91.252 32.5932 91.2505 34.4206C91.249 36.2466 92.287 37.7523 94.0752 37.7538C94.907 37.7538 95.7492 37.377 96.1851 36.9615L96.1866 34.9985L94.5556 34.997V34.4236L96.842 34.4251L96.839 38.2349H96.1955V37.587C95.7477 37.9832 94.9574 38.3377 94.0218 38.3377C91.8599 38.3391 90.5536 36.6026 90.5551 34.4117ZM111.324 34.9583L108.769 30.6034L109.582 30.6049L111.677 34.3045L113.78 30.6079H114.558L112.009 34.9583L112.008 38.2468H111.323L111.324 34.9583ZM126.266 34.4474C126.264 36.6413 124.851 38.3615 122.678 38.36C120.516 38.357 119.106 36.6338 119.107 34.443C119.109 32.2506 120.522 30.5066 122.684 30.5096C124.857 30.5126 126.267 32.2566 126.266 34.4474ZM125.569 34.4474C125.57 32.62 124.47 31.0964 122.684 31.0949C120.907 31.0934 119.804 32.6155 119.803 34.443C119.801 36.2704 120.901 37.7851 122.678 37.7866C124.466 37.7866 125.567 36.2749 125.569 34.4474ZM136.737 30.6258H137.444L137.44 35.8668C137.44 37.3904 136.306 38.3734 134.799 38.3719C133.312 38.3704 132.172 37.3889 132.172 35.8623L132.176 30.6228H132.875L132.87 35.8743C132.869 37.106 133.72 37.7851 134.801 37.7866C135.892 37.7866 136.736 37.1089 136.737 35.8772V30.6258ZM143.791 30.6302L146.2 30.6317C148.091 30.6332 148.85 31.6057 148.848 32.7526C148.848 34.0379 147.996 34.6113 147.05 34.8704L149.117 38.2751H148.304L146.322 34.9628L144.483 34.9613L144.48 38.2721H143.785L143.791 30.6302ZM148.144 32.7645C148.144 31.844 147.573 31.2081 146.046 31.2081L144.486 31.2066L144.483 34.3789H146.043C147.518 34.3804 148.143 33.7028 148.144 32.7645ZM164.17 38.287H163.483L160.675 30.6436H161.422L163.86 37.4098L165.141 33.8309L163.968 30.6451L164.665 30.6466L165.515 33.0072L166.348 30.6481H167.034L165.859 33.81L167.153 37.4128L169.57 30.6496L170.308 30.6511L167.494 38.2885H166.79L165.482 34.656L164.17 38.287ZM182.153 34.4906C182.151 36.6845 180.738 38.4047 178.566 38.4032C176.402 38.4002 174.992 36.677 174.994 34.4862C174.995 32.2938 176.41 30.5498 178.572 30.5528C180.744 30.5543 182.156 32.2983 182.153 34.4906ZM181.457 34.4906C181.459 32.6632 180.358 31.1396 178.572 31.1381C176.792 31.1366 175.692 32.6587 175.691 34.4862C175.689 36.3136 176.789 37.8283 178.566 37.8283C180.352 37.8298 181.456 36.3166 181.457 34.4906ZM188.087 30.6645L190.496 30.666C192.387 30.6675 193.147 31.64 193.144 32.7868C193.143 34.0721 192.292 34.6455 191.346 34.9047L193.411 38.3094H192.6L190.619 34.997L188.779 34.9955L188.776 38.3064H188.082L188.087 30.6645ZM192.438 32.7987C192.44 31.8783 191.869 31.2423 190.342 31.2423L188.782 31.2409L188.779 34.4132H190.339C191.814 34.4147 192.438 33.737 192.438 32.7987ZM199.876 30.6719L199.87 37.7404L203.509 37.7434V38.3168L199.175 38.3123L199.181 30.6719H199.876ZM215.251 34.504C215.249 36.6145 213.606 38.3228 211.341 38.3213H209.096L209.102 30.6794L211.347 30.6809C213.54 30.6838 215.252 32.2402 215.251 34.504ZM214.545 34.504C214.546 32.3951 212.886 31.2572 211.336 31.2557L209.799 31.2543L209.794 37.7464L211.332 37.7479C212.755 37.7509 214.543 36.7187 214.545 34.504Z" fill="#858C97"/>
</svg>
